<?xml version="1.0" encoding="UTF-8"?>
<svg id="Layer_2" data-name="Layer 2" xmlns="http://www.w3.org/2000/svg" viewBox="0 0 192.78 243.57">
  <defs>
    <style>
      .cls-1 {
        fill: #985406;
      }

      .cls-1, .cls-2 {
        stroke: #231f20;
        stroke-miterlimit: 10;
        stroke-width: 15px;
      }

      .cls-3 {
        fill: #231f20;
        font-family: ArialRoundedMTBold, 'Arial Rounded MT Bold';
        font-size: 159px;
        letter-spacing: 0em;
      }

      .cls-2 {
        fill: #f7941d;
      }
    </style>
  </defs>
  <g id="Chapter">
    <path class="cls-2" d="M134.48,7.5H13.85c-3.51,0-6.35,2.84-6.35,6.35v215.87c0,3.51,2.84,6.35,6.35,6.35h165.08c3.51,0,6.35-2.84,6.35-6.35V58.29c-19.75-19.75-31.04-31.04-50.79-50.79Z"/>
    <path class="cls-1" d="M133.87,10.71v41.38c0,3.51,2.84,6.35,6.35,6.35h41.38c1.13,0,1.7-1.37.9-2.17-15.49-15.49-30.97-30.97-46.46-46.46-.8-.8-2.17-.23-2.17.9Z"/>
    <text class="cls-3" transform="translate(37.54 200.79)"><tspan x="0" y="0">C</tspan></text>
  </g>
</svg>