<?xml version="1.0" encoding="UTF-8"?>
<svg id="Layer_2" data-name="Layer 2" xmlns="http://www.w3.org/2000/svg" viewBox="0 0 192.78 243.57">
  <defs>
    <style>
      .cls-1 {
        fill: none;
        stroke-linecap: round;
      }

      .cls-1, .cls-2, .cls-3 {
        stroke: #231f20;
        stroke-miterlimit: 10;
        stroke-width: 15px;
      }

      .cls-2 {
        fill: #635e50;
      }

      .cls-3 {
        fill: #c2b59b;
      }
    </style>
  </defs>
  <g id="Misc">
    <path class="cls-3" d="M134.48,7.5H13.85c-3.51,0-6.35,2.84-6.35,6.35v215.87c0,3.51,2.84,6.35,6.35,6.35h165.08c3.51,0,6.35-2.84,6.35-6.35V58.29L134.48,7.5Z"/>
    <path class="cls-2" d="M133.44,10.71v41.38c0,3.51,2.84,6.35,6.35,6.35h41.38c1.13,0,1.7-1.37.9-2.17-15.49-15.49-30.97-30.97-46.46-46.46-.8-.8-2.17-.23-2.17.9Z"/>
    <line class="cls-1" x1="34.38" y1="94.07" x2="158.4" y2="94.07"/>
    <line class="cls-1" x1="34.38" y1="146.76" x2="158.4" y2="146.76"/>
    <line class="cls-1" x1="34.38" y1="199.46" x2="158.4" y2="199.46"/>
  </g>
</svg>