<?xml version="1.0" encoding="UTF-8"?>
<svg id="Layer_2" data-name="Layer 2" xmlns="http://www.w3.org/2000/svg" viewBox="0 0 242.16 197.83">
  <defs>
    <style>
      .cls-1 {
        fill: #560016;
      }

      .cls-1, .cls-2 {
        stroke-width: 0px;
      }

      .cls-3 {
        fill: #da1c5c;
      }

      .cls-3, .cls-4 {
        stroke: #231f20;
        stroke-linejoin: round;
        stroke-width: 15px;
      }

      .cls-4, .cls-2 {
        fill: #231f20;
      }
    </style>
  </defs>
  <g id="Misc_Folder" data-name="Misc Folder">
    <path class="cls-3" d="M30.22,133.54V54.04l11.36-22.72h34.07l11.36,22.72h124.94v79.5H30.22Z"/>
    <circle class="cls-4" cx="161.86" cy="33.72" r="26.22"/>
    <polygon class="cls-4" points="108.65 112.48 79.25 103.3 49.85 94.12 72.5 73.25 95.15 52.38 101.9 82.43 108.65 112.48"/>
    <rect class="cls-4" x="138.25" y="88.89" width="46.96" height="52.17" transform="translate(-30.4 65.37) rotate(-20.93)"/>
    <g>
      <path class="cls-1" d="M7.5,133.54h227.16c-3.68,9.48-20.76,48.09-25.09,56.79H27.85c-6.78-18.93-13.56-37.86-20.35-56.79Z"/>
      <path class="cls-2" d="M209.57,197.83H27.85c-3.17,0-5.99-1.99-7.06-4.97L.44,136.07c-.82-2.3-.48-4.85.93-6.85,1.4-2,3.69-3.18,6.13-3.18h227.16c2.47,0,4.79,1.22,6.19,3.26,1.4,2.04,1.7,4.64.8,6.95-3.72,9.59-20.79,48.22-25.36,57.42-1.27,2.55-3.87,4.16-6.71,4.16ZM33.13,182.83h171.72c4.52-9.69,13.13-29.09,18.57-41.79H18.15l14.97,41.79Z"/>
    </g>
  </g>
</svg>