<?xml version="1.0" encoding="UTF-8"?>
<svg id="Layer_2" data-name="Layer 2" xmlns="http://www.w3.org/2000/svg" viewBox="0 0 242.16 200.29">
  <defs>
    <style>
      .cls-1 {
        fill: #035675;
      }

      .cls-1, .cls-2 {
        stroke-width: 0px;
      }

      .cls-3 {
        fill: none;
        stroke-linecap: round;
      }

      .cls-3, .cls-4 {
        stroke: #231f20;
        stroke-linejoin: round;
        stroke-width: 15px;
      }

      .cls-2 {
        fill: #231f20;
      }

      .cls-4 {
        fill: #27aae1;
      }
    </style>
  </defs>
  <g id="Plot_Folder" data-name="Plot Folder">
    <path class="cls-4" d="M30.22,136V56.49l11.36-22.72h34.07l11.36,22.72h124.94v79.5H30.22Z"/>
    <g>
      <path class="cls-1" d="M7.5,136h227.16c-3.68,9.48-20.76,48.09-25.09,56.79H27.85c-6.78-18.93-13.56-37.86-20.35-56.79Z"/>
      <path class="cls-2" d="M209.57,200.29H27.85c-3.17,0-5.99-1.99-7.06-4.97L.44,138.53c-.82-2.3-.48-4.85.93-6.85,1.4-2,3.69-3.18,6.13-3.18h227.16c2.47,0,4.79,1.22,6.19,3.26,1.4,2.04,1.7,4.64.8,6.95-3.72,9.59-20.79,48.22-25.36,57.42-1.27,2.55-3.87,4.16-6.71,4.16ZM33.13,185.29h171.72c4.52-9.69,13.13-29.08,18.57-41.79H18.15l14.97,41.79Z"/>
    </g>
    <path class="cls-3" d="M11.08,97.5h80L151.08,7.5c10,23.33,20,46.67,30,70h50"/>
  </g>
</svg>