<?xml version="1.0" encoding="UTF-8"?>
<svg id="Layer_2" data-name="Layer 2" xmlns="http://www.w3.org/2000/svg" viewBox="0 0 158.13 239.16">
  <defs>
    <style>
      .cls-1 {
        stroke-linecap: round;
        stroke-width: 10px;
      }

      .cls-1, .cls-2 {
        fill: #808285;
        stroke: #231f20;
        stroke-linejoin: round;
      }

      .cls-3 {
        fill: #58595b;
        stroke-width: 0px;
      }

      .cls-2 {
        stroke-width: 15px;
      }
    </style>
  </defs>
  <g id="Trash_Folder" data-name="Trash Folder">
    <path class="cls-2" d="M9.07,81.66v30h10c3.33,40,6.67,80,10,120h100c3.33-40,6.67-80,10-120h10v-30H9.07Z"/>
    <path class="cls-2" d="M13.06,62.92c45.86-8.65,91.72-17.29,137.58-25.94-1.85-9.83-3.71-19.65-5.56-29.48-16.38,3.09-32.76,6.18-49.13,9.26-3.89-2.66-7.79-5.32-11.68-7.97l-19.65,3.71c-2.66,3.89-5.32,7.79-7.97,11.68-16.38,3.09-32.76,6.18-49.13,9.26,1.85,9.83,3.71,19.65,5.56,29.48Z"/>
    <line class="cls-1" x1="79.07" y1="111.66" x2="79.07" y2="201.66"/>
    <line class="cls-1" x1="53.98" y1="111.66" x2="53.98" y2="201.66"/>
    <line class="cls-1" x1="104.07" y1="111.66" x2="104.07" y2="201.66"/>
    <path class="cls-3" d="M16.46,89.31v14.74c41.74.09,83.48.17,125.22.26-.04-5.04-.09-10.09-.13-15.13-41.7.04-83.39.09-125.09.13Z"/>
    <path class="cls-3" d="M16.22,39.07c.87,5.06,1.73,10.12,2.6,15.17,41.03-7.65,82.07-15.3,123.1-22.94-1.02-5.16-2.03-10.32-3.05-15.49-40.88,7.75-81.76,15.5-122.64,23.26Z"/>
  </g>
</svg>