<?xml version="1.0" encoding="UTF-8"?>
<svg id="Layer_2" data-name="Layer 2" xmlns="http://www.w3.org/2000/svg" viewBox="0 0 242.16 188.77">
  <defs>
    <style>
      .cls-1 {
        fill: #382055;
      }

      .cls-1, .cls-2 {
        stroke-width: 0px;
      }

      .cls-2, .cls-3 {
        fill: #231f20;
      }

      .cls-4 {
        fill: #7c52a2;
        stroke-width: 15px;
      }

      .cls-4, .cls-3 {
        stroke: #231f20;
        stroke-linejoin: round;
      }

      .cls-3 {
        stroke-width: 10px;
      }
    </style>
  </defs>
  <g id="Characters_Folder" data-name="Characters Folder">
    <path class="cls-4" d="M30.22,124.48V44.97l11.36-22.72h34.07l11.36,22.72h124.94v79.5H30.22Z"/>
    <path class="cls-3" d="M119.3,45.91c-4.13,1.62-10.87,4.91-16.7,11.48-10.89,12.28-15.18,32.15-8.87,37.04,1.32,1.02,3.77,1.92,8.75.48-.44-3.62-1.03-12.82,4.82-20.31,1.63-2.08,4.91-6.29,8.87-5.96,4.4.37,8.64,6.24,9.39,14.83-7.83,13.14-15.65,26.29-23.48,39.43,4.34.42,8.68.84,13.02,1.26,5.74-10.61,11.49-21.22,17.23-31.83,3.83,10.71,7.66,21.42,11.48,32.13h10.43c-4.05-10.16-8.06-23.3-9.91-38.91-.86-7.24-1.13-13.96-1.04-20.04,4.35,5.22,8.7,10.43,13.04,15.65,4.7-1.57,9.39-3.13,14.09-4.7-1.22,15.3-2.43,30.61-3.65,45.91h7.83c1.39-15.13,2.78-30.26,4.17-45.39,4.24-.62,7.5-4.11,7.83-8.35.32-4.17-2.27-8.06-6.26-9.39,1.22-11.06,2.43-22.12,3.65-33.17,2.96,1.57,5.91,3.13,8.87,4.7-3.3-8.59-6.61-17.19-9.91-25.78-5.39,7.9-10.78,15.8-16.17,23.7,3.48-1.22,6.96-2.43,10.43-3.65-1.74,12.62-3.48,25.25-5.22,37.87-4.52.87-9.04,1.74-13.57,2.61-1.03-3.18-3.95-10.67-11.48-16.7-5.43-4.35-10.93-6.06-14.09-6.78,1.26-.9,6.6-4.9,7.3-11.48.92-8.66-6.32-18.43-15.65-18.26-9.06.16-15.3,9.6-15.13,17.96.2,9.91,9.38,15.35,9.91,15.65Z"/>
    <g>
      <path class="cls-1" d="M7.5,124.48h227.16c-3.68,9.48-20.76,48.09-25.09,56.79H27.85c-6.78-18.93-13.56-37.86-20.35-56.79Z"/>
      <path class="cls-2" d="M209.57,188.77H27.85c-3.17,0-5.99-1.99-7.06-4.97L.44,127.01c-.82-2.3-.48-4.85.93-6.85s3.69-3.18,6.13-3.18h227.15c2.47,0,4.79,1.22,6.19,3.26,1.4,2.04,1.7,4.64.8,6.95-3.71,9.57-20.78,48.21-25.36,57.42-1.27,2.55-3.87,4.16-6.71,4.16ZM33.13,173.77h171.72c4.53-9.69,13.13-29.09,18.57-41.79H18.15l14.97,41.79Z"/>
    </g>
  </g>
</svg>