<?xml version="1.0" encoding="UTF-8"?>
<svg id="Layer_2" data-name="Layer 2" xmlns="http://www.w3.org/2000/svg" viewBox="0 0 242.16 185.91">
  <defs>
    <style>
      .cls-1 {
        fill: #3c2415;
      }

      .cls-1, .cls-2, .cls-3 {
        stroke: #231f20;
        stroke-linejoin: round;
        stroke-width: 15px;
      }

      .cls-4 {
        fill: #3d6317;
      }

      .cls-4, .cls-5 {
        stroke-width: 0px;
      }

      .cls-2 {
        fill: #8dc63f;
      }

      .cls-5 {
        fill: #231f20;
      }

      .cls-3 {
        fill: #fdf6a9;
      }
    </style>
  </defs>
  <g id="Locations_Folder" data-name="Locations Folder">
    <path class="cls-2" d="M30.22,121.62V42.12l11.36-22.72h34.07l11.36,22.72h124.94v79.5H30.22Z"/>
    <path class="cls-1" d="M165.9,121.62c12.75-20.65,25.51-41.3,38.26-61.95,8.35,20.65,16.7,41.3,25.04,61.95-21.1,0-42.2,0-63.3,0Z"/>
    <path class="cls-1" d="M19.12,121.62c8.35-26.45,16.7-52.89,25.04-79.34,7.42,14.38,14.84,28.75,22.26,43.13,7.19-4.41,14.38-8.81,21.57-13.22,11.36,16.48,22.72,32.95,34.09,49.43H19.12Z"/>
    <g>
      <path class="cls-4" d="M7.5,121.62h227.16c-3.68,9.48-20.76,48.09-25.09,56.79H27.85c-6.78-18.93-13.56-37.86-20.35-56.79Z"/>
      <path class="cls-5" d="M209.57,185.91H27.85c-3.17,0-5.99-1.99-7.06-4.97L.44,124.15c-.82-2.3-.48-4.85.93-6.85,1.4-2,3.69-3.18,6.13-3.18h227.16c2.47,0,4.79,1.22,6.19,3.26,1.4,2.04,1.7,4.64.8,6.95-3.72,9.58-20.78,48.21-25.36,57.42-1.27,2.55-3.87,4.16-6.71,4.16ZM33.13,170.91h171.72c4.53-9.69,13.13-29.09,18.57-41.79H18.15l14.97,41.79Z"/>
    </g>
    <circle class="cls-3" cx="176.17" cy="28.72" r="21.22"/>
  </g>
</svg>