<?xml version="1.0" encoding="UTF-8"?>
<svg id="Layer_2" data-name="Layer 2" xmlns="http://www.w3.org/2000/svg" viewBox="0 0 195 245">
  <defs>
    <style>
      .cls-1 {
        fill: #c1b8b4;
      }

      .cls-1, .cls-2, .cls-3, .cls-4 {
        stroke: #231f20;
        stroke-miterlimit: 10;
      }

      .cls-1, .cls-3, .cls-4 {
        stroke-width: 10px;
      }

      .cls-2 {
        fill: #ca342c;
        stroke-width: 15px;
      }

      .cls-3 {
        fill: none;
      }

      .cls-4 {
        fill: #f79c84;
      }
    </style>
  </defs>
  <g id="Root_Folder" data-name="Root Folder">
    <rect class="cls-2" x="7.5" y="7.5" width="180" height="230" rx="5" ry="5"/>
    <path class="cls-3" d="M17.5,7.5h35.22c3.74,0,6.78,3.04,6.78,6.78v181.3c0,1.06-.86,1.91-1.91,1.91H11.41c-1.06,0-1.91-.86-1.91-1.91V15.5c0-4.42,3.58-8,8-8Z"/>
    <path class="cls-1" d="M14.67,197.5h169.65c2.86,0,5.17,2.32,5.17,5.17v29.65c0,2.86-2.32,5.17-5.17,5.17H14.02c-2.5,0-4.52-2.03-4.52-4.52v-30.3c0-2.86,2.32-5.17,5.17-5.17Z"/>
    <path class="cls-4" d="M9.5,137.5c3.98-3.09,10.7-7.47,20-10,13.38-3.64,24.67-1.42,30,0v30c-5.33-1.42-16.62-3.64-30,0-9.3,2.53-16.02,6.91-20,10v-30Z"/>
    <path class="cls-4" d="M9.5,59.48c3.98-3.09,10.7-7.47,20-10,13.38-3.64,24.67-1.42,30,0v30c-5.33-1.42-16.62-3.64-30,0-9.3,2.53-16.02,6.91-20,10v-30Z"/>
    <path class="cls-4" d="M119.5,37.5c-15.56,0-27.8,29.18-30,50-1.19,11.23-3.12,29.55,10,40,11.09,8.83,28.91,8.83,40,0,13.12-10.45,11.19-28.77,10-40-2.2-20.82-14.44-50-30-50Z"/>
  </g>
</svg>