<?xml version="1.0" encoding="UTF-8"?>
<svg id="Layer_2" data-name="Layer 2" xmlns="http://www.w3.org/2000/svg" viewBox="0 0 242.15 205">
  <defs>
    <style>
      .cls-1 {
        stroke-linecap: round;
      }

      .cls-1, .cls-2 {
        fill: #fff;
      }

      .cls-1, .cls-2, .cls-3 {
        stroke: #231f20;
        stroke-linejoin: round;
      }

      .cls-1, .cls-3 {
        stroke-width: 15px;
      }

      .cls-4 {
        fill: #985406;
      }

      .cls-4, .cls-5 {
        stroke-width: 0px;
      }

      .cls-2 {
        stroke-width: 10px;
      }

      .cls-5 {
        fill: #231f20;
      }

      .cls-3 {
        fill: #f7941d;
      }
    </style>
  </defs>
  <g id="Timeline_Folder" data-name="Timeline Folder">
    <path class="cls-3" d="M30.22,140.71V61.21l11.36-22.72h34.07l11.36,22.72h124.94v79.5H30.22Z"/>
    <g>
      <path class="cls-4" d="M7.5,140.71h227.16c-3.68,9.48-20.76,48.09-25.09,56.79H27.84c-6.78-18.93-13.56-37.86-20.35-56.79Z"/>
      <path class="cls-5" d="M209.57,205H27.84c-3.17,0-5.99-1.99-7.06-4.97L.44,143.24c-.82-2.3-.48-4.85.93-6.85,1.41-2,3.69-3.18,6.13-3.18h227.15c2.47,0,4.79,1.22,6.19,3.26,1.4,2.04,1.7,4.64.8,6.95-3.72,9.58-20.78,48.21-25.36,57.42-1.27,2.55-3.87,4.16-6.71,4.16ZM33.13,190h171.72c4.53-9.69,13.13-29.09,18.57-41.79H18.15l14.97,41.79Z"/>
    </g>
    <line class="cls-1" x1="48.16" y1="7.5" x2="48.16" y2="87.5"/>
    <line class="cls-1" x1="147.69" y1="98.26" x2="147.69" y2="137.5"/>
    <line class="cls-1" x1="197.69" y1="30.41" x2="197.69" y2="109.07"/>
    <line class="cls-1" x1="19.33" y1="102.21" x2="222.83" y2="102.21"/>
    <circle class="cls-2" cx="47.69" cy="102.98" r="15.48"/>
    <circle class="cls-2" cx="147.69" cy="102.98" r="15.48"/>
    <circle class="cls-2" cx="197.69" cy="102.98" r="15.48"/>
  </g>
</svg>